<svg xmlns="http://www.w3.org/2000/svg" viewBox="0 0 647.79 685.42"><defs><style>.cls-1{fill:#fff;}</style></defs><g id="Camada_2" data-name="Camada 2"><g id="Camada_1-2" data-name="Camada 1"><path class="cls-1" d="M276,671.2C194.4,626.1,116.6,583.6,39.4,540,12,524.5.7,497.8.5,467.4Q-.55,343.2.4,219c.2-35.1,15.7-61.9,47.1-79q117-63.9,233.7-128.2c28.3-15.6,56.3-15.8,84.7-.2,78.6,43.3,157.6,86,236,129.6,28.2,15.6,42.3,40.1,42.2,72.9q-.45,126.9,0,253.8c.1,27-9.7,48.7-31.6,66.8-14.6-24.5-28.3-48.7-43.1-72.1-21-33.2-54.6-33.5-75.2.1-32.9,53.5-64.7,107.8-97,161.7-4.2,7.1-8.2,14.4-7.6,22.6.9,14.2-7.8,18.3-21.7,21.3,0-48.4.3-95.7-.1-143-.4-45.7-7.4-54.7-51.1-68.3-8.6-2.7-15.7-6.8-13.7-16.7,1.8-9,9.2-12.8,18.2-12.8,27.9,0,55.8.4,83.7-.1,21.5-.4,43.5.4,64.5-3.4,51.1-9.4,87-37.6,98.1-90.7,12.2-58.3-.5-110-48.8-147.5-43.2-33.5-92.3-41-141.3-14.1-21.6,11.8-29.5,7.2-42.9-10.9-33.4-45-100.5-57.3-151-31.2-51.1,26.4-77.7,87.6-60.8,144.7,4.3,14.7,3,20.8-10.2,29.4A132.35,132.35,0,0,0,58.3,452.6c18.1,59.5,68.4,97.2,130.5,97.7,21.6.2,43.2.2,64.8-.5,16.1-.6,22.9,6,22.6,22.2C275.6,603.4,276,634.9,276,671.2Z"/><path class="cls-1" d="M511.8,215.1c-40.7-39.5-99.4-41.9-144.4-5.7-24.5,19.6-25.2,19.5-38.9-10-22.6-48.7-79.2-69.7-127.3-47.4s-70,79.2-46.4,127.1c10.7,21.7,6.9,30-14.8,40.2C93.8,340.9,71.7,393,84,441.5c12.1,47.8,54.2,80.8,104.4,81.5,21.6.3,43.2-.5,64.7-.5,34.8.1,49,14.1,49.4,49,.3,32.4.6,64.8-.2,97.1-.3,14,7,16.8,18.3,16.8,10.1,0,20,1.2,19.9-14.3-.5-53,.2-106.1-.7-159.1-.2-14.1-6.3-24.8-23.8-27.3-28.9-4.2-42-19.6-40.8-43.7s18.9-39.4,48.2-40.2c20.7-.6,41.4-.1,62-.1v-1.4c23.4,0,46.8,1.3,70.1-.3,27.6-2,52.4-11.9,69.9-35.2C556.6,321.9,550.2,252.4,511.8,215.1ZM206,490c-1.2,16.4-15.1,11.4-24.2,12.5-48.7-1.5-88.7-53.7-75.9-97.7,2.9-10,5.8-20.4,19.2-16.6,11.6,3.3,9.2,12.3,7.6,22-5.7,34.7,15.9,61.9,50.9,64.6C194.6,475.5,207.2,473.9,206,490ZM514.5,276.3c-10.7,4.9-15.8-1-19.6-11.1-9.7-26.3-29.5-39.9-57.4-40.8-11.1-.4-26.4,6-26.8-12-.4-18.9,17.9-12.5,27.1-16.2,37.5.9,69.6,24.3,82,57.5C523.4,263.2,525.2,271.5,514.5,276.3Z"/><path class="cls-1" d="M642.8,637.9c-31.4-53.3-63.4-106.3-95-159.5-9.3-15.6-19.2-18.9-29.7-1.5-32.3,53.8-64.7,107.7-96.5,161.8-9.8,16.6-4,25.3,15.4,25.2,31.5-.2,63,0,94.4,0s63-.2,94.4.1C645.7,664.2,653.9,656.8,642.8,637.9ZM533.6,526c14.7.1,8.6,20.5,8.3,31.8-.2,12,7,33.6-9.4,33.5-17.2-.1-10.4-21.3-10.4-33.5C522.2,546.9,514.5,525.8,533.6,526Zm-1.9,110.9c-7.9-1.2-13.2-5.6-12.7-13.8.5-8,5.8-13.1,13.9-12.9s12.8,5.7,12.6,13.9C545.3,632.5,540.1,636.6,531.7,636.9Z"/></g></g></svg>