<?xml version="1.0" encoding="utf-8"?>
<!-- Generator: Adobe Illustrator 26.0.2, SVG Export Plug-In . SVG Version: 6.00 Build 0)  -->
<svg version="1.1" id="Camada_1" xmlns="http://www.w3.org/2000/svg" xmlns:xlink="http://www.w3.org/1999/xlink" x="0px" y="0px"
	 viewBox="0 0 300 100" style="enable-background:new 0 0 300 100;" xml:space="preserve">
<style type="text/css">
	.st0{fill:#E5E5E5;}
</style>
<g>
	<g id="Text">
		<path class="st0" d="M221.3,24.5c-5.8,0-11.3,0-16.9,0c-0.8,0-1.3-0.5-1.9-0.9c-7-4.6-14.2-4.7-21.3-0.4
			c-6.4,3.8-9.9,11.8-8.3,19.6c1.6,7.8,6.6,12.9,14.4,14.8c11.3,2.7,20.4-5.2,22-12.4c-5.6,0-11.2-0.1-16.7,0
			c-1.6,0-2.3-0.4-2.2-2.1c0.1-2.9,0.1-5.8,0-8.7c0-1.3,0.4-1.7,1.7-1.7c10.2,0,20.4,0.1,30.7,0c1.4,0,1.5,0.6,1.7,1.7
			c3.3,18.6-11.4,36.6-31,37.9c-15.1,1-29.1-8.6-33.8-23.2c-4.6-14.1,1.2-29.9,13.8-37.9c16.6-10.4,38.3-4.9,47.3,12.2
			C221,23.6,221.1,23.9,221.3,24.5z"/>
		<path class="st0" d="M146.7,7.1c0,11.5,0,22.1,0,32.8c0,10.4-0.1,20.7,0,31.1c0,2.1-0.5,2.7-2.6,2.6c-3.4-0.2-6.8-0.1-10.1,0
			c-1.7,0.1-2.2-0.5-2.2-2.2c0.1-7.3,0-14.5,0-22.6c-1.5,2-2.5,3.4-3.6,4.8c-4.4,6-9,11.9-13.3,18c-1.4,1.9-1.9,1.4-3-0.1
			c-5.3-7.4-10.8-14.6-16.2-22c-0.8,0.7-0.5,1.6-0.5,2.3c0,6.6-0.1,13.1,0,19.7c0,1.6-0.4,2.2-2.1,2.2c-3.6-0.1-7.3-0.1-11,0
			c-1.2,0-1.9-0.2-1.8-1.6c0-21.2,0-42.4,0.1-63.6c0-0.1,0.2-0.3,0.5-0.6c3,4,5.9,7.9,8.8,11.8c7.4,10.1,14.9,20.2,22.3,30.3
			c1.2,1.7,1.8,1.9,3.2,0c9.9-13.7,20-27.2,30-40.9C145.5,8.6,145.9,8.2,146.7,7.1z"/>
		<path class="st0" d="M292.9,23c-2.9-9.8-11.7-15.9-23.4-16c-9.6-0.1-19.2,0-28.7-0.1c-1.9,0-2.4,0.5-2.4,2.4
			c0.1,10.3,0,20.5,0,30.8c0,10.4,0,20.7,0,31.1c0,1.7,0.4,2.4,2.3,2.3c3.5-0.2,6.9-0.1,10.4,0c1.8,0.1,2.3-0.6,2.3-2.3
			c-0.1-5.8,0.1-11.6-0.1-17.5c-0.1-2.1,0.6-2.6,2.6-2.5c5.7,0.1,11.3,0.2,17-0.1C287,50.5,296.8,36.5,292.9,23z M269.6,38.6
			c-2.3,0-4.6,0-6.8,0c-2.6,0-5.3,0-7.9,0c-1.2,0-1.6-0.4-1.6-1.6c0-5.3,0-10.6,0-15.8c0-1.3,0.6-1.5,1.7-1.5
			c5.1,0,10.2-0.1,15.3,0.1c5,0.2,8.9,4.6,8.7,9.4C278.9,34.6,275,38.5,269.6,38.6z"/>
		<path class="st0" d="M35.4,6.7L7.9,7.1C7,7.1,6.2,7.8,6.2,8.7l0,63.2c0,0.9,0.7,1.7,1.7,1.7h27.5c19,0.1,34.4-15.8,33.9-34.3
			C68.8,21.4,53.7,6.7,35.4,6.7z M36.9,59.8H23.5c-0.9,0-1.7-0.7-1.7-1.7l0-35.7c0-0.9,0.7-1.6,1.6-1.7l13.4-0.2
			c9.5,0,17.3,8.6,17.6,19.1C54.7,50.5,46.7,59.8,36.9,59.8z"/>
	</g>
	<g>
		<path class="st0" d="M49,85.3c1.9,0,3,0.4,3.9,1.2c0.6,0.6,1.1,1.6,1.1,2.8c0,1.6-0.6,2.8-1.7,3.6c-1,0.8-2.3,1-3.9,1h-3.1v-0.4
			c1.1-0.1,1.2-0.2,1.2-1.3V87c0-1.1-0.2-1.2-1.2-1.3v-0.4H49z M47.6,92.2c0,1,0.4,1.3,1.4,1.3c2.4,0,3.6-1.6,3.6-4
			c0-1.4-0.5-2.5-1.5-3.2c-0.6-0.4-1.4-0.5-2.3-0.5c-0.6,0-0.9,0.1-1,0.2c-0.1,0.1-0.2,0.2-0.2,0.7V92.2z"/>
		<path class="st0" d="M59.9,92.8c-0.8,1.1-1.8,1.3-2.2,1.3c-1.6,0-2.6-1.3-2.6-2.9c0-0.9,0.3-1.7,0.9-2.3c0.6-0.6,1.3-1,2-1
			c1.2,0,2,1,2,2.1c0,0.3-0.1,0.4-0.3,0.4c-0.3,0.1-2,0.2-3.5,0.2c0,1.8,1,2.5,2,2.5c0.5,0,1-0.2,1.5-0.7L59.9,92.8z M57.7,88.4
			c-0.6,0-1.2,0.6-1.4,1.6c0.7,0,1.5,0,2.3,0c0.2,0,0.3-0.1,0.3-0.3C58.9,89.1,58.4,88.4,57.7,88.4z"/>
		<path class="st0" d="M63.5,93.9c-0.2,0.1-0.4,0.2-0.6,0.2c-0.8,0-1.3-0.5-1.3-1.6v-3.9h-0.9l-0.1-0.2l0.4-0.4h0.6V87
			c0.3-0.3,0.6-0.6,0.9-0.9l0.2,0c0,0.6,0,1.3,0,2h1.5c0.1,0.1,0.1,0.4-0.1,0.5h-1.4V92c0,1.1,0.4,1.3,0.8,1.3
			c0.3,0,0.6-0.1,0.8-0.2l0.1,0.3L63.5,93.9z"/>
		<path class="st0" d="M69.6,92.8c-0.8,1.1-1.8,1.3-2.2,1.3c-1.6,0-2.6-1.3-2.6-2.9c0-0.9,0.3-1.7,0.9-2.3c0.6-0.6,1.3-1,2-1
			c1.2,0,2,1,2,2.1c0,0.3-0.1,0.4-0.3,0.4c-0.3,0.1-2,0.2-3.5,0.2c0,1.8,1,2.5,2,2.5c0.5,0,1-0.2,1.5-0.7L69.6,92.8z M67.3,88.4
			c-0.6,0-1.2,0.6-1.4,1.6c0.7,0,1.5,0,2.3,0c0.2,0,0.3-0.1,0.3-0.3C68.5,89.1,68,88.4,67.3,88.4z"/>
		<path class="st0" d="M75.6,92.7c-0.6,0.8-1.5,1.4-2.3,1.4c-1.7,0-2.7-1.4-2.7-2.8c0-1,0.5-1.9,1.3-2.6c0.7-0.5,1.5-0.8,2-0.8
			c0.6,0,1,0.2,1.2,0.4c0.2,0.1,0.2,0.2,0.2,0.4c0,0.3-0.3,0.6-0.5,0.6c-0.1,0-0.1,0-0.3-0.1c-0.4-0.4-0.9-0.6-1.3-0.6
			c-0.9,0-1.6,0.7-1.6,2.1c0,1.8,1.2,2.5,2,2.5c0.6,0,1-0.1,1.6-0.7L75.6,92.7z"/>
		<path class="st0" d="M79,93.9c-0.2,0.1-0.4,0.2-0.6,0.2c-0.8,0-1.3-0.5-1.3-1.6v-3.9h-0.9l-0.1-0.2l0.4-0.4h0.6V87
			c0.3-0.3,0.6-0.6,0.9-0.9l0.2,0c0,0.6,0,1.3,0,2h1.5c0.1,0.1,0.1,0.4-0.1,0.5h-1.4V92c0,1.1,0.4,1.3,0.8,1.3
			c0.3,0,0.6-0.1,0.8-0.2l0.1,0.3L79,93.9z"/>
		<path class="st0" d="M83.2,87.9c1.7,0,2.9,1.3,2.9,3c0,2.1-1.6,3.2-2.9,3.2c-1.8,0-2.9-1.5-2.9-3C80.3,89,81.9,87.9,83.2,87.9z
			 M83,88.4c-0.8,0-1.5,0.8-1.5,2.3c0,1.7,0.7,2.9,1.8,2.9c0.8,0,1.5-0.6,1.5-2.4C84.8,89.7,84.2,88.4,83,88.4z"/>
		<path class="st0" d="M90,93.9h-3v-0.4c0.8-0.1,0.9-0.1,0.9-1v-2.8c0-0.9-0.1-0.9-0.8-1v-0.3c0.6-0.1,1.2-0.3,1.9-0.5
			c0,0.4,0,1,0,1.5c0.5-0.7,1-1.4,1.7-1.4c0.5,0,0.8,0.3,0.8,0.6c0,0.3-0.2,0.6-0.5,0.7c-0.1,0.1-0.2,0.1-0.3,0
			C90.4,89.1,90.2,89,90,89c-0.3,0-0.8,0.4-1.1,1.1v2.5c0,0.9,0.1,0.9,1.1,1V93.9z"/>
		<path class="st0" d="M99.8,92.8c-0.8,1.1-1.8,1.3-2.2,1.3c-1.6,0-2.6-1.3-2.6-2.9c0-0.9,0.3-1.7,0.9-2.3c0.6-0.6,1.3-1,2-1
			c1.2,0,2,1,2,2.1c0,0.3-0.1,0.4-0.3,0.4c-0.3,0.1-2,0.2-3.5,0.2c0,1.8,1,2.5,2,2.5c0.5,0,1-0.2,1.5-0.7L99.8,92.8z M97.6,88.4
			c-0.6,0-1.2,0.6-1.4,1.6c0.7,0,1.5,0,2.3,0c0.2,0,0.3-0.1,0.3-0.3C98.8,89.1,98.3,88.4,97.6,88.4z"/>
		<path class="st0" d="M111.3,93.9v-0.4c1.1-0.1,1.1-0.2,1.1-1.6l0-5.4c-1.1,2.4-2.8,6.2-3.3,7.4h-0.3c-0.5-1.2-1.9-4.9-3-7.3
			c-0.2,4.6-0.2,5.7-0.2,5.9c0,0.7,0.3,0.8,1.2,0.9v0.4h-3.1v-0.4c0.8-0.1,1.1-0.2,1.2-1c0.1-0.6,0.1-1.1,0.4-5.9
			c0.1-0.7-0.1-0.9-1.2-1v-0.4h2.3l2.9,6.7l3.1-6.7h2.3v0.4c-1.1,0.1-1.3,0.3-1.3,1.2l0.1,5.1c0.1,1.4,0.1,1.5,1.3,1.6v0.4H111.3z"
			/>
		<path class="st0" d="M120.3,92.8c-0.8,1.1-1.8,1.3-2.2,1.3c-1.6,0-2.6-1.3-2.6-2.9c0-0.9,0.3-1.7,0.9-2.3c0.6-0.6,1.3-1,2-1
			c1.2,0,2,1,2,2.1c0,0.3-0.1,0.4-0.3,0.4c-0.3,0.1-2,0.2-3.5,0.2c0,1.8,1,2.5,2,2.5c0.5,0,1-0.2,1.5-0.7L120.3,92.8z M118,88.4
			c-0.6,0-1.2,0.6-1.4,1.6c0.7,0,1.5,0,2.3,0c0.2,0,0.3-0.1,0.3-0.3C119.2,89.1,118.7,88.4,118,88.4z"/>
		<path class="st0" d="M127.7,93.6c-0.3,0.1-1.3,0.2-2.1,0.5c0-0.3,0-0.6,0-0.9c-0.2,0.1-0.6,0.3-0.8,0.5c-0.5,0.3-0.9,0.4-1,0.4
			c-1.1,0-2.5-1.1-2.5-2.9c0-1.8,1.6-3.2,3.4-3.2c0.2,0,0.6,0,0.9,0.1v-1.9c0-0.8-0.1-0.9-1-1v-0.3c0.7-0.1,1.6-0.3,2.1-0.5
			c0,0.5,0,1.1,0,1.6v6.4c0,0.7,0.1,0.8,0.6,0.8l0.4,0V93.6z M125.7,89.1c-0.3-0.5-0.9-0.7-1.4-0.7c-0.6,0-1.8,0.4-1.8,2.3
			c0,1.6,1,2.5,1.8,2.5c0.5,0,1-0.2,1.3-0.5V89.1z"/>
		<path class="st0" d="M128.3,93.9v-0.4c0.8-0.1,0.9-0.1,0.9-1v-2.7c0-0.8,0-0.9-0.8-1v-0.3c0.7-0.1,1.3-0.3,1.9-0.5
			c0,0.6,0,1.1,0,1.7v2.9c0,0.9,0.1,1,1,1v0.4H128.3z M129.7,86.6c-0.4,0-0.7-0.3-0.7-0.7c0-0.4,0.3-0.7,0.7-0.7
			c0.4,0,0.7,0.3,0.7,0.7C130.4,86.3,130.1,86.6,129.7,86.6z"/>
		<path class="st0" d="M138.3,93.6c-0.3,0.1-1.3,0.2-2.1,0.5c0-0.3,0-0.6,0-0.9c-0.2,0.1-0.6,0.3-0.8,0.5c-0.5,0.3-0.9,0.4-1,0.4
			c-1.1,0-2.5-1.1-2.5-2.9c0-1.8,1.6-3.2,3.4-3.2c0.2,0,0.6,0,0.9,0.1v-1.9c0-0.8-0.1-0.9-1-1v-0.3c0.7-0.1,1.6-0.3,2.1-0.5
			c0,0.5,0,1.1,0,1.6v6.4c0,0.7,0.1,0.8,0.6,0.8l0.4,0V93.6z M136.3,89.1c-0.3-0.5-0.9-0.7-1.4-0.7c-0.6,0-1.8,0.4-1.8,2.3
			c0,1.6,1,2.5,1.8,2.5c0.5,0,1-0.2,1.3-0.5V89.1z"/>
		<path class="st0" d="M141.9,87.9c1.7,0,2.9,1.3,2.9,3c0,2.1-1.6,3.2-2.9,3.2c-1.8,0-2.9-1.5-2.9-3C139,89,140.7,87.9,141.9,87.9z
			 M141.8,88.4c-0.8,0-1.5,0.8-1.5,2.3c0,1.7,0.7,2.9,1.8,2.9c0.8,0,1.5-0.6,1.5-2.4C143.6,89.7,142.9,88.4,141.8,88.4z"/>
		<path class="st0" d="M148.7,93.9h-3v-0.4c0.8-0.1,0.9-0.1,0.9-1v-2.8c0-0.9-0.1-0.9-0.8-1v-0.3c0.6-0.1,1.2-0.3,1.9-0.5
			c0,0.4,0,1,0,1.5c0.5-0.7,1-1.4,1.7-1.4c0.5,0,0.8,0.3,0.8,0.6c0,0.3-0.2,0.6-0.5,0.7c-0.1,0.1-0.2,0.1-0.3,0
			c-0.2-0.2-0.4-0.3-0.6-0.3c-0.3,0-0.8,0.4-1.1,1.1v2.5c0,0.9,0.1,0.9,1.1,1V93.9z"/>
		<path class="st0" d="M160.2,93.6c-0.3,0.1-1.3,0.2-2.1,0.5c0-0.3,0-0.6,0-0.9c-0.2,0.1-0.6,0.3-0.8,0.5c-0.5,0.3-0.9,0.4-1,0.4
			c-1.1,0-2.5-1.1-2.5-2.9c0-1.8,1.6-3.2,3.4-3.2c0.2,0,0.6,0,0.9,0.1v-1.9c0-0.8-0.1-0.9-1-1v-0.3c0.7-0.1,1.6-0.3,2.1-0.5
			c0,0.5,0,1.1,0,1.6v6.4c0,0.7,0.1,0.8,0.6,0.8l0.4,0V93.6z M158.1,89.1c-0.3-0.5-0.9-0.7-1.4-0.7c-0.6,0-1.8,0.4-1.8,2.3
			c0,1.6,1,2.5,1.8,2.5c0.5,0,1-0.2,1.3-0.5V89.1z"/>
		<path class="st0" d="M165.6,92.8c-0.8,1.1-1.8,1.3-2.2,1.3c-1.6,0-2.6-1.3-2.6-2.9c0-0.9,0.3-1.7,0.9-2.3c0.6-0.6,1.3-1,2-1
			c1.2,0,2,1,2,2.1c0,0.3-0.1,0.4-0.3,0.4c-0.3,0.1-2,0.2-3.5,0.2c0,1.8,1,2.5,2,2.5c0.5,0,1-0.2,1.5-0.7L165.6,92.8z M163.3,88.4
			c-0.6,0-1.2,0.6-1.4,1.6c0.7,0,1.5,0,2.3,0c0.2,0,0.3-0.1,0.3-0.3C164.5,89.1,164.1,88.4,163.3,88.4z"/>
		<path class="st0" d="M178.4,90.3c-0.8,0.1-0.9,0.2-0.9,1v1.1c0,0.5,0,0.9,0.1,1.3c-0.8,0.2-1.9,0.5-3,0.5c-3,0-4.8-1.9-4.8-4.5
			c0-2.8,2.3-4.5,4.9-4.5c1.4,0,2.3,0.3,2.8,0.3c0,0.5,0.1,1.3,0.2,2.1l-0.4,0.1c-0.3-1.1-0.7-1.6-1.5-1.9c-0.3-0.1-0.8-0.2-1.2-0.2
			c-2,0-3.3,1.4-3.3,3.8c0,2.1,1.1,4.2,3.7,4.2c0.5,0,0.9-0.1,1.1-0.2c0.3-0.2,0.5-0.3,0.5-0.8v-1.1c0-1-0.1-1.1-1.4-1.2v-0.4h3.4
			V90.3z"/>
		<path class="st0" d="M183.6,94.1c-0.2,0-0.5-0.1-0.6-0.3c-0.2-0.2-0.3-0.4-0.3-0.6c-0.5,0.4-1.2,0.8-1.6,0.8
			c-0.9,0-1.6-0.8-1.6-1.6c0-0.7,0.4-1.1,1.1-1.3c0.8-0.3,1.8-0.6,2.1-0.9V90c0-0.9-0.5-1.5-1.2-1.5c-0.3,0-0.5,0.1-0.6,0.3
			c-0.1,0.2-0.2,0.5-0.4,0.9c-0.1,0.2-0.2,0.3-0.4,0.3c-0.3,0-0.6-0.3-0.6-0.6c0-0.2,0.2-0.3,0.4-0.5c0.4-0.3,1.2-0.8,1.9-0.9
			c0.4,0,0.8,0.1,1.1,0.4c0.5,0.4,0.7,0.8,0.7,1.5v2.6c0,0.6,0.2,0.8,0.5,0.8c0.2,0,0.3-0.1,0.5-0.1l0.1,0.4L183.6,94.1z
			 M182.6,90.7c-0.3,0.1-0.9,0.4-1.2,0.6c-0.5,0.2-0.8,0.5-0.8,1c0,0.7,0.5,1,1,1c0.3,0,0.8-0.2,1.1-0.5
			C182.6,92.2,182.6,91.4,182.6,90.7z"/>
		<path class="st0" d="M188.6,89.7c-0.2-0.8-0.6-1.3-1.4-1.3c-0.5,0-0.8,0.3-0.8,0.9c0,0.6,0.4,0.8,1.1,1.2c1.1,0.5,1.7,0.9,1.7,1.8
			c0,1.2-1.1,1.8-2.2,1.8c-0.7,0-1.3-0.2-1.6-0.4c-0.1-0.4-0.2-1.1-0.2-1.6l0.4-0.1c0.2,0.8,0.7,1.5,1.6,1.5c0.5,0,0.9-0.3,0.9-0.9
			c0-0.6-0.4-0.9-1.1-1.2c-0.9-0.5-1.7-0.9-1.7-1.8c0-1,0.8-1.7,2.1-1.7c0.6,0,1,0.1,1.3,0.2c0,0.3,0.1,1.2,0.2,1.5L188.6,89.7z"/>
		<path class="st0" d="M195,92.8c-0.8,1.1-1.8,1.3-2.2,1.3c-1.6,0-2.6-1.3-2.6-2.9c0-0.9,0.3-1.7,0.9-2.3c0.6-0.6,1.3-1,2-1
			c1.2,0,2,1,2,2.1c0,0.3-0.1,0.4-0.3,0.4c-0.3,0.1-2,0.2-3.5,0.2c0,1.8,1,2.5,2,2.5c0.5,0,1-0.2,1.5-0.7L195,92.8z M192.7,88.4
			c-0.6,0-1.2,0.6-1.4,1.6c0.7,0,1.5,0,2.3,0c0.2,0,0.3-0.1,0.3-0.3C193.9,89.1,193.5,88.4,192.7,88.4z"/>
		<path class="st0" d="M199.3,89.7c-0.2-0.8-0.6-1.3-1.4-1.3c-0.5,0-0.8,0.3-0.8,0.9c0,0.6,0.4,0.8,1.1,1.2c1.1,0.5,1.7,0.9,1.7,1.8
			c0,1.2-1.1,1.8-2.2,1.8c-0.7,0-1.3-0.2-1.6-0.4c-0.1-0.4-0.2-1.1-0.2-1.6l0.4-0.1c0.2,0.8,0.7,1.5,1.6,1.5c0.5,0,0.9-0.3,0.9-0.9
			c0-0.6-0.4-0.9-1.1-1.2c-0.9-0.5-1.7-0.9-1.7-1.8c0-1,0.8-1.7,2.1-1.7c0.6,0,1,0.1,1.3,0.2c0,0.3,0.1,1.2,0.2,1.5L199.3,89.7z"/>
		<path class="st0" d="M207.5,85.3c0.9,0,1.7,0.2,2.2,0.6c0.5,0.4,0.9,1,0.9,1.9c0,1.9-1.7,2.7-2.9,2.7c-0.1,0-0.3,0-0.4,0l-0.9-0.2
			v2.1c0,1.1,0.1,1.1,1.3,1.3v0.4h-3.7v-0.4c1.1-0.1,1.2-0.2,1.2-1.3V87c0-1.2-0.1-1.2-1.2-1.3v-0.4H207.5z M206.4,89.7
			c0.2,0.1,0.5,0.2,1,0.2c0.9,0,2-0.5,2-2.1c0-1.5-1-2-2.1-2c-0.4,0-0.7,0.1-0.7,0.2c-0.1,0.1-0.1,0.3-0.1,0.6V89.7z"/>
		<path class="st0" d="M214.1,87.9c1.7,0,2.9,1.3,2.9,3c0,2.1-1.6,3.2-2.9,3.2c-1.8,0-2.9-1.5-2.9-3C211.1,89,212.8,87.9,214.1,87.9
			z M213.9,88.4c-0.8,0-1.5,0.8-1.5,2.3c0,1.7,0.7,2.9,1.8,2.9c0.8,0,1.5-0.6,1.5-2.4C215.7,89.7,215.1,88.4,213.9,88.4z"/>
		<path class="st0" d="M217.7,93.9v-0.4c0.8-0.1,1-0.1,1-1v-6.4c0-0.8-0.1-0.9-0.9-1v-0.3c0.7-0.1,1.5-0.3,2-0.5c0,0.6,0,1.3,0,1.9
			v6.3c0,0.9,0.1,0.9,0.9,1v0.4H217.7z"/>
		<path class="st0" d="M227.7,93.6c-0.6,0.1-1.4,0.3-2,0.5c0-0.2,0-0.7,0-1c-0.7,0.6-1.3,1-2,1c-0.9,0-1.7-0.5-1.7-2v-2.6
			c0-0.7-0.1-0.8-0.4-0.9l-0.4-0.1v-0.3c0.6,0,1.4-0.2,1.9-0.2c0,0.4,0,1.1,0,1.9v1.8c0,1.2,0.6,1.5,1.2,1.5c0.5,0,1-0.2,1.4-0.6
			v-3.1c0-0.7-0.2-0.8-0.6-0.9l-0.4-0.1v-0.3c0.8,0,1.8-0.2,2.1-0.2v4.4c0,0.7,0.1,0.8,0.6,0.8l0.4,0V93.6z"/>
		<path class="st0" d="M233.2,92.8c-0.8,1.1-1.8,1.3-2.2,1.3c-1.6,0-2.6-1.3-2.6-2.9c0-0.9,0.3-1.7,0.9-2.3c0.6-0.6,1.3-1,2-1
			c1.2,0,2,1,2,2.1c0,0.3-0.1,0.4-0.3,0.4c-0.3,0.1-2,0.2-3.5,0.2c0,1.8,1,2.5,2,2.5c0.5,0,1-0.2,1.5-0.7L233.2,92.8z M230.9,88.4
			c-0.6,0-1.2,0.6-1.4,1.6c0.7,0,1.5,0,2.3,0c0.2,0,0.3-0.1,0.3-0.3C232.1,89.1,231.6,88.4,230.9,88.4z"/>
		<path class="st0" d="M237.9,93.9v-0.4c0.8-0.1,0.8-0.2,0.8-1.1v-2.2c0-0.9-0.3-1.6-1.2-1.6c-0.5,0-1.1,0.3-1.5,0.7v3.1
			c0,0.9,0.1,0.9,0.9,1v0.4H234v-0.4c0.9-0.1,1-0.1,1-1v-2.7c0-0.9-0.1-0.9-0.8-1v-0.3c0.7-0.1,1.3-0.3,1.9-0.5c0,0.3,0,0.7,0,1
			c0.3-0.2,0.6-0.4,0.9-0.6c0.4-0.2,0.7-0.4,1.1-0.4c1.1,0,1.7,0.8,1.7,2.1v2.5c0,0.9,0.1,0.9,0.8,1v0.4H237.9z"/>
		<path class="st0" d="M243.9,93.9c-0.2,0.1-0.4,0.2-0.6,0.2c-0.8,0-1.3-0.5-1.3-1.6v-3.9h-0.9l-0.1-0.2l0.4-0.4h0.6V87
			c0.3-0.3,0.6-0.6,0.9-0.9l0.2,0c0,0.6,0,1.3,0,2h1.5c0.1,0.1,0.1,0.4-0.1,0.5h-1.4V92c0,1.1,0.4,1.3,0.8,1.3
			c0.3,0,0.6-0.1,0.8-0.2l0.1,0.3L243.9,93.9z"/>
		<path class="st0" d="M250,92.8c-0.8,1.1-1.8,1.3-2.2,1.3c-1.6,0-2.6-1.3-2.6-2.9c0-0.9,0.3-1.7,0.9-2.3c0.6-0.6,1.3-1,2-1
			c1.2,0,2,1,2,2.1c0,0.3-0.1,0.4-0.3,0.4c-0.3,0.1-2,0.2-3.5,0.2c0,1.8,1,2.5,2,2.5c0.5,0,1-0.2,1.5-0.7L250,92.8z M247.7,88.4
			c-0.6,0-1.2,0.6-1.4,1.6c0.7,0,1.5,0,2.3,0c0.2,0,0.3-0.1,0.3-0.3C248.9,89.1,248.4,88.4,247.7,88.4z"/>
		<path class="st0" d="M254.3,89.7c-0.2-0.8-0.6-1.3-1.4-1.3c-0.5,0-0.8,0.3-0.8,0.9c0,0.6,0.4,0.8,1.1,1.2c1.1,0.5,1.7,0.9,1.7,1.8
			c0,1.2-1.1,1.8-2.2,1.8c-0.7,0-1.3-0.2-1.6-0.4c-0.1-0.4-0.2-1.1-0.2-1.6l0.4-0.1c0.2,0.8,0.7,1.5,1.6,1.5c0.5,0,0.9-0.3,0.9-0.9
			c0-0.6-0.4-0.9-1.1-1.2c-0.9-0.5-1.7-0.9-1.7-1.8c0-1,0.8-1.7,2.1-1.7c0.6,0,1,0.1,1.3,0.2c0,0.3,0.1,1.2,0.2,1.5L254.3,89.7z"/>
	</g>
</g>
</svg>
